<svg width="578" height="724" viewBox="0 0 578 724" fill="none" xmlns="http://www.w3.org/2000/svg">
<g opacity="0.07">
<mask id="mask0_2_982" style="mask-type:alpha" maskUnits="userSpaceOnUse" x="0" y="-5" width="578" height="729">
<rect y="-5" width="578" height="729" fill="white"/>
</mask>
<g mask="url(#mask0_2_982)">
<path d="M112.824 13.377L113.964 15.0202L112.824 13.377L111.824 14.071C108.38 16.4604 104.367 17.8982 100.189 18.2388L87.8358 19.2461H66.2113C57.3604 19.2461 48.6804 21.6834 41.1232 26.2907C38.6869 27.7761 36.3872 29.4749 34.2514 31.3671L29.1345 35.9004L30.4607 37.3974L29.1344 35.9004C28.3541 36.5918 27.6396 37.3542 27.0004 38.1779C19.5084 47.8302 4.04236 42.5324 4.04236 30.3136V15.0533C4.04236 5.08274 12.1251 -3 22.0957 -3H107.699C115.773 -3 119.755 6.81714 113.962 12.4411C113.609 12.7837 113.228 13.0967 112.824 13.377Z" stroke="white" stroke-width="4" style="mix-blend-mode:lighten"/>
<path d="M7.67743 53.2529L6.53732 51.6097L7.67744 53.2529L8.67773 52.5588C12.1215 50.1694 16.1351 48.7317 20.3128 48.3911L32.666 47.3838H54.2904C63.1413 47.3838 71.8213 44.9465 79.3785 40.3391C81.8149 38.8538 84.1145 37.155 86.2503 35.2628L91.3673 30.7294L90.041 29.2324L91.3673 30.7294C92.1476 30.0381 92.8621 29.2757 93.5014 28.452C100.993 18.7996 116.459 24.0975 116.459 36.3163V51.5766C116.459 61.5471 108.377 69.6299 98.406 69.6299H12.8025C4.72851 69.6299 0.747063 59.8127 6.54019 54.1888C6.89304 53.8462 7.2734 53.5332 7.67743 53.2529Z" stroke="white" stroke-width="4" style="mix-blend-mode:lighten"/>
<path d="M261.92 13.377L263.06 15.0202L261.92 13.377L260.919 14.071C257.476 16.4604 253.462 17.8982 249.284 18.2388L236.931 19.2461H215.307C206.456 19.2461 197.776 21.6834 190.219 26.2907C187.782 27.7761 185.483 29.4749 183.347 31.3671L178.23 35.9004L179.556 37.3974L178.23 35.9004C177.45 36.5918 176.735 37.3542 176.096 38.1779C168.604 47.8302 153.138 42.5324 153.138 30.3136V15.0533C153.138 5.08274 161.221 -3 171.191 -3H256.795C264.869 -3 268.85 6.81714 263.057 12.4411C262.704 12.7837 262.324 13.0967 261.92 13.377Z" stroke="white" stroke-width="4" style="mix-blend-mode:lighten"/>
<path d="M156.773 53.2529L155.633 51.6097L156.773 53.2529L157.773 52.5588C161.217 50.1694 165.231 48.7317 169.408 48.3911L181.761 47.3838H203.386C212.237 47.3838 220.917 44.9465 228.474 40.3391C230.91 38.8538 233.21 37.155 235.346 35.2628L240.463 30.7294L239.136 29.2324L240.463 30.7294C241.243 30.0381 241.957 29.2757 242.597 28.452C250.089 18.7996 265.555 24.0975 265.555 36.3163V51.5766C265.555 61.5471 257.472 69.6299 247.501 69.6299H161.898C153.824 69.6299 149.842 59.8127 155.636 54.1888C155.988 53.8462 156.369 53.5332 156.773 53.2529Z" stroke="white" stroke-width="4" style="mix-blend-mode:lighten"/>
<path d="M411.015 13.377L412.155 15.0202L411.015 13.377L410.015 14.071C406.571 16.4604 402.558 17.8982 398.38 18.2388L386.027 19.2461H364.402C355.551 19.2461 346.871 21.6834 339.314 26.2907C336.878 27.7761 334.578 29.4749 332.442 31.3671L327.325 35.9004L328.652 37.3974L327.325 35.9004C326.545 36.5918 325.831 37.3542 325.191 38.1779C317.699 47.8302 302.233 42.5324 302.233 30.3136V15.0533C302.233 5.08274 310.316 -3 320.287 -3H405.89C413.964 -3 417.946 6.81714 412.153 12.4411C411.8 12.7837 411.419 13.0967 411.015 13.377Z" stroke="white" stroke-width="4" style="mix-blend-mode:lighten"/>
<path d="M305.868 53.2529L304.728 51.6097L305.868 53.2529L306.869 52.5588C310.312 50.1694 314.326 48.7317 318.504 48.3911L330.857 47.3838H352.481C361.332 47.3838 370.012 44.9465 377.569 40.3391C380.006 38.8538 382.305 37.155 384.441 35.2628L389.558 30.7294L388.232 29.2324L389.558 30.7294C390.339 30.0381 391.053 29.2757 391.692 28.452C399.184 18.7996 414.65 24.0975 414.65 36.3163V51.5766C414.65 61.5471 406.568 69.6299 396.597 69.6299H310.993C302.919 69.6299 298.938 59.8127 304.731 54.1888C305.084 53.8462 305.464 53.5332 305.868 53.2529Z" stroke="white" stroke-width="4" style="mix-blend-mode:lighten"/>
<path d="M560.111 13.377L561.251 15.0202L560.111 13.377L559.11 14.071C555.667 16.4604 551.653 17.8982 547.475 18.2388L535.122 19.2461H513.498C504.647 19.2461 495.967 21.6834 488.41 26.2907C485.973 27.7761 483.673 29.4749 481.538 31.3671L476.421 35.9004L477.747 37.3974L476.421 35.9004C475.64 36.5918 474.926 37.3542 474.287 38.1779C466.795 47.8302 451.329 42.5324 451.329 30.3136V15.0533C451.329 5.08274 459.411 -3 469.382 -3H554.985C563.059 -3 567.041 6.81714 561.248 12.4411C560.895 12.7837 560.515 13.0967 560.111 13.377Z" stroke="white" stroke-width="4" style="mix-blend-mode:lighten"/>
<path d="M454.964 53.2529L453.824 51.6097L454.964 53.2529L455.964 52.5588C459.408 50.1694 463.421 48.7317 467.599 48.3911L479.952 47.3838H501.577C510.428 47.3838 519.108 44.9465 526.665 40.3391C529.101 38.8538 531.401 37.155 533.537 35.2628L538.654 30.7294L537.327 29.2324L538.654 30.7294C539.434 30.0381 540.148 29.2757 540.788 28.452C548.28 18.7996 563.746 24.0975 563.746 36.3163V51.5766C563.746 61.5471 555.663 69.6299 545.692 69.6299H460.089C452.015 69.6299 448.033 59.8127 453.826 54.1888C454.179 53.8462 454.56 53.5332 454.964 53.2529Z" stroke="white" stroke-width="4" style="mix-blend-mode:lighten"/>
<path d="M112.824 102.779L113.964 104.422L112.824 102.779L111.824 103.473C108.38 105.862 104.367 107.3 100.189 107.64L87.8358 108.648H66.2113C57.3604 108.648 48.6804 111.085 41.1232 115.692C38.6869 117.178 36.3872 118.877 34.2514 120.769L29.1345 125.302L30.4607 126.799L29.1344 125.302C28.3541 125.993 27.6396 126.756 27.0004 127.579C19.5084 137.232 4.04236 131.934 4.04236 119.715V104.455C4.04236 94.4843 12.1251 86.4016 22.0957 86.4016H107.699C115.773 86.4016 119.755 96.2188 113.962 101.843C113.609 102.185 113.228 102.498 112.824 102.779Z" stroke="white" stroke-width="4" style="mix-blend-mode:lighten"/>
<path d="M7.67743 142.655L6.53732 141.012L7.67744 142.655L8.67773 141.961C12.1215 139.571 16.1351 138.134 20.3128 137.793L32.666 136.786H54.2904C63.1413 136.786 71.8213 134.348 79.3785 129.741C81.8149 128.256 84.1145 126.557 86.2503 124.665L91.3673 120.131L90.041 118.634L91.3673 120.131C92.1476 119.44 92.8621 118.678 93.5014 117.854C100.993 108.201 116.459 113.499 116.459 125.718V140.978C116.459 150.949 108.377 159.032 98.406 159.032H12.8025C4.72851 159.032 0.747063 149.215 6.54019 143.591C6.89304 143.248 7.2734 142.935 7.67743 142.655Z" stroke="white" stroke-width="4" style="mix-blend-mode:lighten"/>
<path d="M261.92 102.779L263.06 104.422L261.92 102.779L260.919 103.473C257.476 105.862 253.462 107.3 249.284 107.64L236.931 108.648H215.307C206.456 108.648 197.776 111.085 190.219 115.692C187.782 117.178 185.483 118.877 183.347 120.769L178.23 125.302L179.556 126.799L178.23 125.302C177.45 125.993 176.735 126.756 176.096 127.579C168.604 137.232 153.138 131.934 153.138 119.715V104.455C153.138 94.4843 161.221 86.4016 171.191 86.4016H256.795C264.869 86.4016 268.85 96.2188 263.057 101.843C262.704 102.185 262.324 102.498 261.92 102.779Z" stroke="white" stroke-width="4" style="mix-blend-mode:lighten"/>
<path d="M156.773 142.655L155.633 141.012L156.773 142.655L157.773 141.961C161.217 139.571 165.231 138.134 169.408 137.793L181.761 136.786H203.386C212.237 136.786 220.917 134.348 228.474 129.741C230.91 128.256 233.21 126.557 235.346 124.665L240.463 120.131L239.136 118.634L240.463 120.131C241.243 119.44 241.957 118.678 242.597 117.854C250.089 108.201 265.555 113.499 265.555 125.718V140.978C265.555 150.949 257.472 159.032 247.501 159.032H161.898C153.824 159.032 149.842 149.215 155.636 143.591C155.988 143.248 156.369 142.935 156.773 142.655Z" stroke="white" stroke-width="4" style="mix-blend-mode:lighten"/>
<path d="M411.015 102.779L412.155 104.422L411.015 102.779L410.015 103.473C406.571 105.862 402.558 107.3 398.38 107.64L386.027 108.648H364.402C355.551 108.648 346.871 111.085 339.314 115.692C336.878 117.178 334.578 118.877 332.442 120.769L327.325 125.302L328.652 126.799L327.325 125.302C326.545 125.993 325.831 126.756 325.191 127.579C317.699 137.232 302.233 131.934 302.233 119.715V104.455C302.233 94.4843 310.316 86.4016 320.287 86.4016H405.89C413.964 86.4016 417.946 96.2188 412.153 101.843C411.8 102.185 411.419 102.498 411.015 102.779Z" stroke="white" stroke-width="4" style="mix-blend-mode:lighten"/>
<path d="M305.868 142.655L304.728 141.012L305.868 142.655L306.869 141.961C310.312 139.571 314.326 138.134 318.504 137.793L330.857 136.786H352.481C361.332 136.786 370.012 134.348 377.569 129.741C380.006 128.256 382.305 126.557 384.441 124.665L389.558 120.131L388.232 118.634L389.558 120.131C390.339 119.44 391.053 118.678 391.692 117.854C399.184 108.201 414.65 113.499 414.65 125.718V140.978C414.65 150.949 406.568 159.032 396.597 159.032H310.993C302.919 159.032 298.938 149.215 304.731 143.591C305.084 143.248 305.464 142.935 305.868 142.655Z" stroke="white" stroke-width="4" style="mix-blend-mode:lighten"/>
<path d="M560.111 102.779L561.251 104.422L560.111 102.779L559.11 103.473C555.667 105.862 551.653 107.3 547.475 107.64L535.122 108.648H513.498C504.647 108.648 495.967 111.085 488.41 115.692C485.973 117.178 483.673 118.877 481.538 120.769L476.421 125.302L477.747 126.799L476.421 125.302C475.64 125.993 474.926 126.756 474.287 127.579C466.795 137.232 451.329 131.934 451.329 119.715V104.455C451.329 94.4843 459.411 86.4016 469.382 86.4016H554.985C563.059 86.4016 567.041 96.2188 561.248 101.843C560.895 102.185 560.515 102.498 560.111 102.779Z" stroke="white" stroke-width="4" style="mix-blend-mode:lighten"/>
<path d="M454.964 142.655L453.824 141.012L454.964 142.655L455.964 141.961C459.408 139.571 463.421 138.134 467.599 137.793L479.952 136.786H501.577C510.428 136.786 519.108 134.348 526.665 129.741C529.101 128.256 531.401 126.557 533.537 124.665L538.654 120.131L537.327 118.634L538.654 120.131C539.434 119.44 540.148 118.678 540.788 117.854C548.28 108.201 563.746 113.499 563.746 125.718V140.978C563.746 150.949 555.663 159.032 545.692 159.032H460.089C452.015 159.032 448.033 149.215 453.826 143.591C454.179 143.248 454.56 142.935 454.964 142.655Z" stroke="white" stroke-width="4" style="mix-blend-mode:lighten"/>
<path d="M112.824 193.163L113.964 194.806L112.824 193.163L111.824 193.857C108.38 196.246 104.367 197.684 100.189 198.024L87.8358 199.032H66.2113C57.3604 199.032 48.6804 201.469 41.1232 206.076C38.6869 207.562 36.3872 209.261 34.2514 211.153L29.1345 215.686L30.4607 217.183L29.1344 215.686C28.3541 216.377 27.6396 217.14 27.0004 217.963C19.5084 227.616 4.04236 222.318 4.04236 210.099V194.839C4.04236 184.868 12.1251 176.786 22.0957 176.786H107.699C115.773 176.786 119.755 186.603 113.962 192.227C113.609 192.569 113.228 192.882 112.824 193.163Z" stroke="white" stroke-width="4" style="mix-blend-mode:lighten"/>
<path d="M7.67743 233.039L6.53732 231.395L7.67744 233.039L8.67773 232.344C12.1215 229.955 16.1351 228.517 20.3128 228.177L32.666 227.169H54.2904C63.1413 227.169 71.8213 224.732 79.3785 220.125C81.8149 218.639 84.1145 216.941 86.2503 215.048L91.3673 210.515L90.041 209.018L91.3673 210.515C92.1476 209.824 92.8621 209.061 93.5014 208.238C100.993 198.585 116.459 203.883 116.459 216.102V231.362C116.459 241.333 108.377 249.416 98.406 249.416H12.8025C4.72851 249.416 0.747063 239.598 6.54019 233.974C6.89304 233.632 7.2734 233.319 7.67743 233.039Z" stroke="white" stroke-width="4" style="mix-blend-mode:lighten"/>
<path d="M261.92 193.163L263.06 194.806L261.92 193.163L260.919 193.857C257.476 196.246 253.462 197.684 249.284 198.024L236.931 199.032H215.307C206.456 199.032 197.776 201.469 190.219 206.076C187.782 207.562 185.483 209.261 183.347 211.153L178.23 215.686L179.556 217.183L178.23 215.686C177.45 216.377 176.735 217.14 176.096 217.963C168.604 227.616 153.138 222.318 153.138 210.099V194.839C153.138 184.868 161.221 176.786 171.191 176.786H256.795C264.869 176.786 268.85 186.603 263.057 192.227C262.704 192.569 262.324 192.882 261.92 193.163Z" stroke="white" stroke-width="4" style="mix-blend-mode:lighten"/>
<path d="M156.773 233.039L155.633 231.395L156.773 233.039L157.773 232.344C161.217 229.955 165.231 228.517 169.408 228.177L181.761 227.169H203.386C212.237 227.169 220.917 224.732 228.474 220.125C230.91 218.639 233.21 216.941 235.346 215.048L240.463 210.515L239.136 209.018L240.463 210.515C241.243 209.824 241.957 209.061 242.597 208.238C250.089 198.585 265.555 203.883 265.555 216.102V231.362C265.555 241.333 257.472 249.416 247.501 249.416H161.898C153.824 249.416 149.842 239.598 155.636 233.974C155.988 233.632 156.369 233.319 156.773 233.039Z" stroke="white" stroke-width="4" style="mix-blend-mode:lighten"/>
<path d="M411.015 193.163L412.155 194.806L411.015 193.163L410.015 193.857C406.571 196.246 402.558 197.684 398.38 198.024L386.027 199.032H364.402C355.551 199.032 346.871 201.469 339.314 206.076C336.878 207.562 334.578 209.261 332.442 211.153L327.325 215.686L328.652 217.183L327.325 215.686C326.545 216.377 325.831 217.14 325.191 217.963C317.699 227.616 302.233 222.318 302.233 210.099V194.839C302.233 184.868 310.316 176.786 320.287 176.786H405.89C413.964 176.786 417.946 186.603 412.153 192.227C411.8 192.569 411.419 192.882 411.015 193.163Z" stroke="white" stroke-width="4" style="mix-blend-mode:lighten"/>
<path d="M305.868 233.039L304.728 231.395L305.868 233.039L306.869 232.344C310.312 229.955 314.326 228.517 318.504 228.177L330.857 227.169H352.481C361.332 227.169 370.012 224.732 377.569 220.125C380.006 218.639 382.305 216.941 384.441 215.048L389.558 210.515L388.232 209.018L389.558 210.515C390.339 209.824 391.053 209.061 391.692 208.238C399.184 198.585 414.65 203.883 414.65 216.102V231.362C414.65 241.333 406.568 249.416 396.597 249.416H310.993C302.919 249.416 298.938 239.598 304.731 233.974C305.084 233.632 305.464 233.319 305.868 233.039Z" stroke="white" stroke-width="4" style="mix-blend-mode:lighten"/>
<path d="M560.111 193.163L561.251 194.806L560.111 193.163L559.11 193.857C555.667 196.246 551.653 197.684 547.475 198.024L535.122 199.032H513.498C504.647 199.032 495.967 201.469 488.41 206.076C485.973 207.562 483.673 209.261 481.538 211.153L476.421 215.686L477.747 217.183L476.421 215.686C475.64 216.377 474.926 217.14 474.287 217.963C466.795 227.616 451.329 222.318 451.329 210.099V194.839C451.329 184.868 459.411 176.786 469.382 176.786H554.985C563.059 176.786 567.041 186.603 561.248 192.227C560.895 192.569 560.515 192.882 560.111 193.163Z" stroke="white" stroke-width="4" style="mix-blend-mode:lighten"/>
<path d="M454.964 233.039L453.824 231.395L454.964 233.039L455.964 232.344C459.408 229.955 463.421 228.517 467.599 228.177L479.952 227.169H501.577C510.428 227.169 519.108 224.732 526.665 220.125C529.101 218.639 531.401 216.941 533.537 215.048L538.654 210.515L537.327 209.018L538.654 210.515C539.434 209.824 540.148 209.061 540.788 208.238C548.28 198.585 563.746 203.883 563.746 216.102V231.362C563.746 241.333 555.663 249.416 545.692 249.416H460.089C452.015 249.416 448.033 239.598 453.826 233.974C454.179 233.632 454.56 233.319 454.964 233.039Z" stroke="white" stroke-width="4" style="mix-blend-mode:lighten"/>
<path d="M112.824 283.547L113.964 285.19L112.824 283.547L111.824 284.241C108.38 286.63 104.367 288.068 100.189 288.408L87.8358 289.416H66.2113C57.3604 289.416 48.6804 291.853 41.1232 296.46C38.6869 297.946 36.3872 299.645 34.2514 301.537L29.1345 306.07L30.4607 307.567L29.1344 306.07C28.3541 306.761 27.6396 307.524 27.0004 308.348C19.5084 318 4.04236 312.702 4.04236 300.483V285.223C4.04236 275.252 12.1251 267.17 22.0957 267.17H107.699C115.773 267.17 119.755 276.987 113.962 282.611C113.609 282.953 113.228 283.266 112.824 283.547Z" stroke="white" stroke-width="4" style="mix-blend-mode:lighten"/>
<path d="M7.67743 323.423L6.53732 321.78L7.67744 323.423L8.67773 322.729C12.1215 320.339 16.1351 318.902 20.3128 318.561L32.666 317.554H54.2904C63.1413 317.554 71.8213 315.116 79.3785 310.509C81.8149 309.024 84.1145 307.325 86.2503 305.433L91.3673 300.899L90.041 299.402L91.3673 300.899C92.1476 300.208 92.8621 299.446 93.5014 298.622C100.993 288.97 116.459 294.267 116.459 306.486V321.746C116.459 331.717 108.377 339.8 98.406 339.8H12.8025C4.72851 339.8 0.747063 329.983 6.54019 324.359C6.89304 324.016 7.2734 323.703 7.67743 323.423Z" stroke="white" stroke-width="4" style="mix-blend-mode:lighten"/>
<path d="M261.92 283.547L263.06 285.19L261.92 283.547L260.919 284.241C257.476 286.63 253.462 288.068 249.284 288.408L236.931 289.416H215.307C206.456 289.416 197.776 291.853 190.219 296.46C187.782 297.946 185.483 299.645 183.347 301.537L178.23 306.07L179.556 307.567L178.23 306.07C177.45 306.761 176.735 307.524 176.096 308.348C168.604 318 153.138 312.702 153.138 300.483V285.223C153.138 275.252 161.221 267.17 171.191 267.17H256.795C264.869 267.17 268.85 276.987 263.057 282.611C262.704 282.953 262.324 283.266 261.92 283.547Z" stroke="white" stroke-width="4" style="mix-blend-mode:lighten"/>
<path d="M156.773 323.423L155.633 321.78L156.773 323.423L157.773 322.729C161.217 320.339 165.231 318.902 169.408 318.561L181.761 317.554H203.386C212.237 317.554 220.917 315.116 228.474 310.509C230.91 309.024 233.21 307.325 235.346 305.433L240.463 300.899L239.136 299.402L240.463 300.899C241.243 300.208 241.957 299.446 242.597 298.622C250.089 288.97 265.555 294.267 265.555 306.486V321.746C265.555 331.717 257.472 339.8 247.501 339.8H161.898C153.824 339.8 149.842 329.983 155.636 324.359C155.988 324.016 156.369 323.703 156.773 323.423Z" stroke="white" stroke-width="4" style="mix-blend-mode:lighten"/>
<path d="M411.015 283.547L412.155 285.19L411.015 283.547L410.015 284.241C406.571 286.63 402.558 288.068 398.38 288.408L386.027 289.416H364.402C355.551 289.416 346.871 291.853 339.314 296.46C336.878 297.946 334.578 299.645 332.442 301.537L327.325 306.07L328.652 307.567L327.325 306.07C326.545 306.761 325.831 307.524 325.191 308.348C317.699 318 302.233 312.702 302.233 300.483V285.223C302.233 275.252 310.316 267.17 320.287 267.17H405.89C413.964 267.17 417.946 276.987 412.153 282.611C411.8 282.953 411.419 283.266 411.015 283.547Z" stroke="white" stroke-width="4" style="mix-blend-mode:lighten"/>
<path d="M305.868 323.423L304.728 321.78L305.868 323.423L306.869 322.729C310.312 320.339 314.326 318.902 318.504 318.561L330.857 317.554H352.481C361.332 317.554 370.012 315.116 377.569 310.509C380.006 309.024 382.305 307.325 384.441 305.433L389.558 300.899L388.232 299.402L389.558 300.899C390.339 300.208 391.053 299.446 391.692 298.622C399.184 288.97 414.65 294.267 414.65 306.486V321.746C414.65 331.717 406.568 339.8 396.597 339.8H310.993C302.919 339.8 298.938 329.983 304.731 324.359C305.084 324.016 305.464 323.703 305.868 323.423Z" stroke="white" stroke-width="4" style="mix-blend-mode:lighten"/>
<path d="M560.111 283.547L561.251 285.19L560.111 283.547L559.11 284.241C555.667 286.63 551.653 288.068 547.475 288.408L535.122 289.416H513.498C504.647 289.416 495.967 291.853 488.41 296.46C485.973 297.946 483.673 299.645 481.538 301.537L476.421 306.07L477.747 307.567L476.421 306.07C475.64 306.761 474.926 307.524 474.287 308.348C466.795 318 451.329 312.702 451.329 300.483V285.223C451.329 275.252 459.411 267.17 469.382 267.17H554.985C563.059 267.17 567.041 276.987 561.248 282.611C560.895 282.953 560.515 283.266 560.111 283.547Z" stroke="white" stroke-width="4" style="mix-blend-mode:lighten"/>
<path d="M454.964 323.423L453.824 321.78L454.964 323.423L455.964 322.729C459.408 320.339 463.421 318.902 467.599 318.561L479.952 317.554H501.577C510.428 317.554 519.108 315.116 526.665 310.509C529.101 309.024 531.401 307.325 533.537 305.433L538.654 300.899L537.327 299.402L538.654 300.899C539.434 300.208 540.148 299.446 540.788 298.622C548.28 288.97 563.746 294.267 563.746 306.486V321.746C563.746 331.717 555.663 339.8 545.692 339.8H460.089C452.015 339.8 448.033 329.983 453.826 324.359C454.179 324.016 454.56 323.703 454.964 323.423Z" stroke="white" stroke-width="4" style="mix-blend-mode:lighten"/>
<path d="M112.824 373.931L113.964 375.574L112.824 373.931L111.824 374.625C108.38 377.014 104.367 378.452 100.189 378.793L87.8358 379.8H66.2113C57.3604 379.8 48.6804 382.237 41.1232 386.844C38.6869 388.33 36.3872 390.029 34.2514 391.921L29.1345 396.454L30.4607 397.951L29.1344 396.454C28.3541 397.146 27.6396 397.908 27.0004 398.732C19.5084 408.384 4.04236 403.086 4.04236 390.867V375.607C4.04236 365.636 12.1251 357.554 22.0957 357.554H107.699C115.773 357.554 119.755 367.371 113.962 372.995C113.609 373.337 113.228 373.65 112.824 373.931Z" stroke="white" stroke-width="4" style="mix-blend-mode:lighten"/>
<path d="M7.67743 413.807L6.53732 412.164L7.67744 413.807L8.67773 413.113C12.1215 410.723 16.1351 409.286 20.3128 408.945L32.666 407.938H54.2904C63.1413 407.938 71.8213 405.5 79.3785 400.893C81.8149 399.408 84.1145 397.709 86.2503 395.817L91.3673 391.283L90.041 389.786L91.3673 391.283C92.1476 390.592 92.8621 389.829 93.5014 389.006C100.993 379.353 116.459 384.651 116.459 396.87V412.13C116.459 422.101 108.377 430.184 98.406 430.184H12.8025C4.72851 430.184 0.747063 420.367 6.54019 414.743C6.89304 414.4 7.2734 414.087 7.67743 413.807Z" stroke="white" stroke-width="4" style="mix-blend-mode:lighten"/>
<path d="M261.92 373.931L263.06 375.574L261.92 373.931L260.919 374.625C257.476 377.014 253.462 378.452 249.284 378.793L236.931 379.8H215.307C206.456 379.8 197.776 382.237 190.219 386.844C187.782 388.33 185.483 390.029 183.347 391.921L178.23 396.454L179.556 397.951L178.23 396.454C177.45 397.146 176.735 397.908 176.096 398.732C168.604 408.384 153.138 403.086 153.138 390.867V375.607C153.138 365.636 161.221 357.554 171.191 357.554H256.795C264.869 357.554 268.85 367.371 263.057 372.995C262.704 373.337 262.324 373.65 261.92 373.931Z" stroke="white" stroke-width="4" style="mix-blend-mode:lighten"/>
<path d="M156.773 413.807L155.633 412.164L156.773 413.807L157.773 413.113C161.217 410.723 165.231 409.286 169.408 408.945L181.761 407.938H203.386C212.237 407.938 220.917 405.5 228.474 400.893C230.91 399.408 233.21 397.709 235.346 395.817L240.463 391.283L239.136 389.786L240.463 391.283C241.243 390.592 241.957 389.829 242.597 389.006C250.089 379.353 265.555 384.651 265.555 396.87V412.13C265.555 422.101 257.472 430.184 247.501 430.184H161.898C153.824 430.184 149.842 420.367 155.636 414.743C155.988 414.4 156.369 414.087 156.773 413.807Z" stroke="white" stroke-width="4" style="mix-blend-mode:lighten"/>
<path d="M411.015 373.931L412.155 375.574L411.015 373.931L410.015 374.625C406.571 377.014 402.558 378.452 398.38 378.793L386.027 379.8H364.402C355.551 379.8 346.871 382.237 339.314 386.844C336.878 388.33 334.578 390.029 332.442 391.921L327.325 396.454L328.652 397.951L327.325 396.454C326.545 397.146 325.831 397.908 325.191 398.732C317.699 408.384 302.233 403.086 302.233 390.867V375.607C302.233 365.636 310.316 357.554 320.287 357.554H405.89C413.964 357.554 417.946 367.371 412.153 372.995C411.8 373.337 411.419 373.65 411.015 373.931Z" stroke="white" stroke-width="4" style="mix-blend-mode:lighten"/>
<path d="M305.868 413.807L304.728 412.164L305.868 413.807L306.869 413.113C310.312 410.723 314.326 409.286 318.504 408.945L330.857 407.938H352.481C361.332 407.938 370.012 405.5 377.569 400.893C380.006 399.408 382.305 397.709 384.441 395.817L389.558 391.283L388.232 389.786L389.558 391.283C390.339 390.592 391.053 389.829 391.692 389.006C399.184 379.353 414.65 384.651 414.65 396.87V412.13C414.65 422.101 406.568 430.184 396.597 430.184H310.993C302.919 430.184 298.938 420.367 304.731 414.743C305.084 414.4 305.464 414.087 305.868 413.807Z" stroke="white" stroke-width="4" style="mix-blend-mode:lighten"/>
<path d="M560.111 373.931L561.251 375.574L560.111 373.931L559.11 374.625C555.667 377.014 551.653 378.452 547.475 378.793L535.122 379.8H513.498C504.647 379.8 495.967 382.237 488.41 386.844C485.973 388.33 483.673 390.029 481.538 391.921L476.421 396.454L477.747 397.951L476.421 396.454C475.64 397.146 474.926 397.908 474.287 398.732C466.795 408.384 451.329 403.086 451.329 390.867V375.607C451.329 365.636 459.411 357.554 469.382 357.554H554.985C563.059 357.554 567.041 367.371 561.248 372.995C560.895 373.337 560.515 373.65 560.111 373.931Z" stroke="white" stroke-width="4" style="mix-blend-mode:lighten"/>
<path d="M454.964 413.807L453.824 412.164L454.964 413.807L455.964 413.113C459.408 410.723 463.421 409.286 467.599 408.945L479.952 407.938H501.577C510.428 407.938 519.108 405.5 526.665 400.893C529.101 399.408 531.401 397.709 533.537 395.817L538.654 391.283L537.327 389.786L538.654 391.283C539.434 390.592 540.148 389.829 540.788 389.006C548.28 379.353 563.746 384.651 563.746 396.87V412.13C563.746 422.101 555.663 430.184 545.692 430.184H460.089C452.015 430.184 448.033 420.367 453.826 414.743C454.179 414.4 454.56 414.087 454.964 413.807Z" stroke="white" stroke-width="4" style="mix-blend-mode:lighten"/>
<path d="M112.824 464.315L113.964 465.958L112.824 464.315L111.824 465.009C108.38 467.398 104.367 468.836 100.189 469.177L87.8358 470.184H66.2113C57.3604 470.184 48.6804 472.621 41.1232 477.229C38.6869 478.714 36.3872 480.413 34.2514 482.305L29.1345 486.838L30.4607 488.335L29.1344 486.838C28.3541 487.53 27.6396 488.292 27.0004 489.116C19.5084 498.768 4.04236 493.47 4.04236 481.252V465.991C4.04236 456.021 12.1251 447.938 22.0957 447.938H107.699C115.773 447.938 119.755 457.755 113.962 463.379C113.609 463.722 113.228 464.035 112.824 464.315Z" stroke="white" stroke-width="4" style="mix-blend-mode:lighten"/>
<path d="M7.67743 504.191L6.53732 502.548L7.67744 504.191L8.67773 503.497C12.1215 501.107 16.1351 499.67 20.3128 499.329L32.666 498.322H54.2904C63.1413 498.322 71.8213 495.884 79.3785 491.277C81.8149 489.792 84.1145 488.093 86.2503 486.201L91.3673 481.667L90.041 480.17L91.3673 481.667C92.1476 480.976 92.8621 480.214 93.5014 479.39C100.993 469.738 116.459 475.036 116.459 487.254V502.515C116.459 512.485 108.377 520.568 98.406 520.568H12.8025C4.72851 520.568 0.747063 510.751 6.54019 505.127C6.89304 504.784 7.2734 504.471 7.67743 504.191Z" stroke="white" stroke-width="4" style="mix-blend-mode:lighten"/>
<path d="M261.92 464.315L263.06 465.958L261.92 464.315L260.919 465.009C257.476 467.398 253.462 468.836 249.284 469.177L236.931 470.184H215.307C206.456 470.184 197.776 472.621 190.219 477.229C187.782 478.714 185.483 480.413 183.347 482.305L178.23 486.838L179.556 488.335L178.23 486.838C177.45 487.53 176.735 488.292 176.096 489.116C168.604 498.768 153.138 493.47 153.138 481.252V465.991C153.138 456.021 161.221 447.938 171.191 447.938H256.795C264.869 447.938 268.85 457.755 263.057 463.379C262.704 463.722 262.324 464.035 261.92 464.315Z" stroke="white" stroke-width="4" style="mix-blend-mode:lighten"/>
<path d="M156.773 504.191L155.633 502.548L156.773 504.191L157.773 503.497C161.217 501.107 165.231 499.67 169.408 499.329L181.761 498.322H203.386C212.237 498.322 220.917 495.884 228.474 491.277C230.91 489.792 233.21 488.093 235.346 486.201L240.463 481.667L239.136 480.17L240.463 481.667C241.243 480.976 241.957 480.214 242.597 479.39C250.089 469.738 265.555 475.036 265.555 487.254V502.515C265.555 512.485 257.472 520.568 247.501 520.568H161.898C153.824 520.568 149.842 510.751 155.636 505.127C155.988 504.784 156.369 504.471 156.773 504.191Z" stroke="white" stroke-width="4" style="mix-blend-mode:lighten"/>
<path d="M411.015 464.315L412.155 465.958L411.015 464.315L410.015 465.009C406.571 467.398 402.558 468.836 398.38 469.177L386.027 470.184H364.402C355.551 470.184 346.871 472.621 339.314 477.229C336.878 478.714 334.578 480.413 332.442 482.305L327.325 486.838L328.652 488.335L327.325 486.838C326.545 487.53 325.831 488.292 325.191 489.116C317.699 498.768 302.233 493.47 302.233 481.251V465.991C302.233 456.021 310.316 447.938 320.287 447.938H405.89C413.964 447.938 417.946 457.755 412.153 463.379C411.8 463.722 411.419 464.035 411.015 464.315Z" stroke="white" stroke-width="4" style="mix-blend-mode:lighten"/>
<path d="M305.868 504.191L304.728 502.548L305.868 504.191L306.869 503.497C310.312 501.107 314.326 499.67 318.504 499.329L330.857 498.322H352.481C361.332 498.322 370.012 495.884 377.569 491.277C380.006 489.792 382.305 488.093 384.441 486.201L389.558 481.667L388.232 480.17L389.558 481.667C390.339 480.976 391.053 480.214 391.692 479.39C399.184 469.738 414.65 475.036 414.65 487.254V502.515C414.65 512.485 406.568 520.568 396.597 520.568H310.993C302.919 520.568 298.938 510.751 304.731 505.127C305.084 504.784 305.464 504.471 305.868 504.191Z" stroke="white" stroke-width="4" style="mix-blend-mode:lighten"/>
<path d="M560.111 464.315L561.251 465.958L560.111 464.315L559.11 465.009C555.667 467.398 551.653 468.836 547.475 469.177L535.122 470.184H513.498C504.647 470.184 495.967 472.621 488.41 477.229C485.973 478.714 483.673 480.413 481.538 482.305L476.421 486.838L477.747 488.335L476.421 486.838C475.64 487.53 474.926 488.292 474.287 489.116C466.795 498.768 451.329 493.47 451.329 481.252V465.991C451.329 456.021 459.411 447.938 469.382 447.938H554.985C563.059 447.938 567.041 457.755 561.248 463.379C560.895 463.722 560.515 464.035 560.111 464.315Z" stroke="white" stroke-width="4" style="mix-blend-mode:lighten"/>
<path d="M454.964 504.191L453.824 502.548L454.964 504.191L455.964 503.497C459.408 501.107 463.421 499.67 467.599 499.329L479.952 498.322H501.577C510.428 498.322 519.108 495.884 526.665 491.277C529.101 489.792 531.401 488.093 533.537 486.201L538.654 481.667L537.327 480.17L538.654 481.667C539.434 480.976 540.148 480.214 540.788 479.39C548.28 469.738 563.746 475.036 563.746 487.254V502.515C563.746 512.485 555.663 520.568 545.692 520.568H460.089C452.015 520.568 448.033 510.751 453.826 505.127C454.179 504.784 454.56 504.471 454.964 504.191Z" stroke="white" stroke-width="4" style="mix-blend-mode:lighten"/>
<path d="M112.824 554.699L113.964 556.342L112.824 554.699L111.824 555.393C108.38 557.782 104.367 559.22 100.189 559.561L87.8358 560.568H66.2113C57.3604 560.568 48.6804 563.005 41.1232 567.613C38.6869 569.098 36.3872 570.797 34.2514 572.689L29.1345 577.222L30.4607 578.719L29.1344 577.222C28.3541 577.914 27.6396 578.676 27.0004 579.5C19.5084 589.152 4.04236 583.854 4.04236 571.636V556.375C4.04236 546.405 12.1251 538.322 22.0957 538.322H107.699C115.773 538.322 119.755 548.139 113.962 553.763C113.609 554.106 113.228 554.419 112.824 554.699Z" stroke="white" stroke-width="4" style="mix-blend-mode:lighten"/>
<path d="M7.67743 594.575L6.53732 592.932L7.67744 594.575L8.67773 593.881C12.1215 591.492 16.1351 590.054 20.3128 589.713L32.666 588.706H54.2904C63.1413 588.706 71.8213 586.269 79.3785 581.661C81.8149 580.176 84.1145 578.477 86.2503 576.585L91.3673 572.052L90.041 570.555L91.3673 572.052C92.1476 571.36 92.8621 570.598 93.5014 569.774C100.993 560.122 116.459 565.42 116.459 577.638V592.899C116.459 602.869 108.377 610.952 98.406 610.952H12.8025C4.72851 610.952 0.747063 601.135 6.54019 595.511C6.89304 595.168 7.2734 594.855 7.67743 594.575Z" stroke="white" stroke-width="4" style="mix-blend-mode:lighten"/>
<path d="M261.92 554.699L263.06 556.342L261.92 554.699L260.919 555.393C257.476 557.782 253.462 559.22 249.284 559.561L236.931 560.568H215.307C206.456 560.568 197.776 563.005 190.219 567.613C187.782 569.098 185.483 570.797 183.347 572.689L178.23 577.222L179.556 578.719L178.23 577.222C177.45 577.914 176.735 578.676 176.096 579.5C168.604 589.152 153.138 583.854 153.138 571.636V556.375C153.138 546.405 161.221 538.322 171.191 538.322H256.795C264.869 538.322 268.85 548.139 263.057 553.763C262.704 554.106 262.324 554.419 261.92 554.699Z" stroke="white" stroke-width="4" style="mix-blend-mode:lighten"/>
<path d="M156.773 594.575L155.633 592.932L156.773 594.575L157.773 593.881C161.217 591.492 165.231 590.054 169.408 589.713L181.761 588.706H203.386C212.237 588.706 220.917 586.269 228.474 581.661C230.91 580.176 233.21 578.477 235.346 576.585L240.463 572.052L239.136 570.555L240.463 572.052C241.243 571.36 241.957 570.598 242.597 569.774C250.089 560.122 265.555 565.42 265.555 577.638V592.899C265.555 602.869 257.472 610.952 247.501 610.952H161.898C153.824 610.952 149.842 601.135 155.636 595.511C155.988 595.168 156.369 594.855 156.773 594.575Z" stroke="white" stroke-width="4" style="mix-blend-mode:lighten"/>
<path d="M411.015 554.699L412.155 556.342L411.015 554.699L410.015 555.393C406.571 557.782 402.558 559.22 398.38 559.561L386.027 560.568H364.402C355.551 560.568 346.871 563.005 339.314 567.613C336.878 569.098 334.578 570.797 332.442 572.689L327.325 577.222L328.652 578.719L327.325 577.222C326.545 577.914 325.831 578.676 325.191 579.5C317.699 589.152 302.233 583.854 302.233 571.636V556.375C302.233 546.405 310.316 538.322 320.287 538.322H405.89C413.964 538.322 417.946 548.139 412.153 553.763C411.8 554.106 411.419 554.419 411.015 554.699Z" stroke="white" stroke-width="4" style="mix-blend-mode:lighten"/>
<path d="M305.868 594.575L304.728 592.932L305.868 594.575L306.869 593.881C310.312 591.492 314.326 590.054 318.504 589.713L330.857 588.706H352.481C361.332 588.706 370.012 586.269 377.569 581.661C380.006 580.176 382.305 578.477 384.441 576.585L389.558 572.052L388.232 570.555L389.558 572.052C390.339 571.36 391.053 570.598 391.692 569.774C399.184 560.122 414.65 565.42 414.65 577.638V592.899C414.65 602.869 406.568 610.952 396.597 610.952H310.993C302.919 610.952 298.938 601.135 304.731 595.511C305.084 595.168 305.464 594.855 305.868 594.575Z" stroke="white" stroke-width="4" style="mix-blend-mode:lighten"/>
<path d="M560.111 554.699L561.251 556.342L560.111 554.699L559.11 555.393C555.667 557.782 551.653 559.22 547.475 559.561L535.122 560.568H513.498C504.647 560.568 495.967 563.005 488.41 567.613C485.973 569.098 483.673 570.797 481.538 572.689L476.421 577.222L477.747 578.719L476.421 577.222C475.64 577.914 474.926 578.676 474.287 579.5C466.795 589.152 451.329 583.854 451.329 571.636V556.375C451.329 546.405 459.411 538.322 469.382 538.322H554.985C563.059 538.322 567.041 548.139 561.248 553.763C560.895 554.106 560.515 554.419 560.111 554.699Z" stroke="white" stroke-width="4" style="mix-blend-mode:lighten"/>
<path d="M454.964 594.575L453.824 592.932L454.964 594.575L455.964 593.881C459.408 591.492 463.421 590.054 467.599 589.713L479.952 588.706H501.577C510.428 588.706 519.108 586.269 526.665 581.661C529.101 580.176 531.401 578.477 533.537 576.585L538.654 572.052L537.327 570.555L538.654 572.052C539.434 571.36 540.148 570.598 540.788 569.774C548.28 560.122 563.746 565.42 563.746 577.638V592.899C563.746 602.869 555.663 610.952 545.692 610.952H460.089C452.015 610.952 448.033 601.135 453.826 595.511C454.179 595.168 454.56 594.855 454.964 594.575Z" stroke="white" stroke-width="4" style="mix-blend-mode:lighten"/>
<path d="M112.824 645.083L113.964 646.726L112.824 645.083L111.824 645.777C108.38 648.166 104.367 649.604 100.189 649.945L87.8358 650.952H66.2113C57.3604 650.952 48.6804 653.389 41.1232 657.997C38.6869 659.482 36.3872 661.181 34.2514 663.073L29.1345 667.606L30.4607 669.103L29.1344 667.606C28.3541 668.298 27.6396 669.06 27.0004 669.884C19.5084 679.536 4.04236 674.238 4.04236 662.02V646.759C4.04236 636.789 12.1251 628.706 22.0957 628.706H107.699C115.773 628.706 119.755 638.523 113.962 644.147C113.609 644.49 113.228 644.803 112.824 645.083Z" stroke="white" stroke-width="4" style="mix-blend-mode:lighten"/>
<path d="M7.67743 684.959L6.53732 683.316L7.67744 684.959L8.67773 684.265C12.1215 681.876 16.1351 680.438 20.3128 680.097L32.666 679.09H54.2904C63.1413 679.09 71.8213 676.653 79.3785 672.045C81.8149 670.56 84.1145 668.861 86.2503 666.969L91.3673 662.436L90.041 660.939L91.3673 662.436C92.1476 661.744 92.8621 660.982 93.5014 660.158C100.993 650.506 116.459 655.804 116.459 668.022V683.283C116.459 693.253 108.377 701.336 98.406 701.336H12.8025C4.72851 701.336 0.747063 691.519 6.54019 685.895C6.89304 685.552 7.2734 685.239 7.67743 684.959Z" stroke="white" stroke-width="4" style="mix-blend-mode:lighten"/>
<path d="M261.92 645.083L263.06 646.726L261.92 645.083L260.919 645.777C257.476 648.166 253.462 649.604 249.284 649.945L236.931 650.952H215.307C206.456 650.952 197.776 653.389 190.219 657.997C187.782 659.482 185.483 661.181 183.347 663.073L178.23 667.606L179.556 669.103L178.23 667.606C177.45 668.298 176.735 669.06 176.096 669.884C168.604 679.536 153.138 674.238 153.138 662.02V646.759C153.138 636.789 161.221 628.706 171.191 628.706H256.795C264.869 628.706 268.85 638.523 263.057 644.147C262.704 644.49 262.324 644.803 261.92 645.083Z" stroke="white" stroke-width="4" style="mix-blend-mode:lighten"/>
<path d="M156.773 684.959L155.633 683.316L156.773 684.959L157.773 684.265C161.217 681.876 165.231 680.438 169.408 680.097L181.761 679.09H203.386C212.237 679.09 220.917 676.653 228.474 672.045C230.91 670.56 233.21 668.861 235.346 666.969L240.463 662.436L239.136 660.939L240.463 662.436C241.243 661.744 241.957 660.982 242.597 660.158C250.089 650.506 265.555 655.804 265.555 668.022V683.283C265.555 693.253 257.472 701.336 247.501 701.336H161.898C153.824 701.336 149.842 691.519 155.636 685.895C155.988 685.552 156.369 685.239 156.773 684.959Z" stroke="white" stroke-width="4" style="mix-blend-mode:lighten"/>
<path d="M411.015 645.083L412.155 646.726L411.015 645.083L410.015 645.777C406.571 648.166 402.558 649.604 398.38 649.945L386.027 650.952H364.402C355.551 650.952 346.871 653.389 339.314 657.997C336.878 659.482 334.578 661.181 332.442 663.073L327.325 667.606L328.652 669.103L327.325 667.606C326.545 668.298 325.831 669.06 325.191 669.884C317.699 679.536 302.233 674.238 302.233 662.02V646.759C302.233 636.789 310.316 628.706 320.287 628.706H405.89C413.964 628.706 417.946 638.523 412.153 644.147C411.8 644.49 411.419 644.803 411.015 645.083Z" stroke="white" stroke-width="4" style="mix-blend-mode:lighten"/>
<path d="M305.868 684.959L304.728 683.316L305.868 684.959L306.869 684.265C310.312 681.876 314.326 680.438 318.504 680.097L330.857 679.09H352.481C361.332 679.09 370.012 676.653 377.569 672.045C380.006 670.56 382.305 668.861 384.441 666.969L389.558 662.436L388.232 660.939L389.558 662.436C390.339 661.744 391.053 660.982 391.692 660.158C399.184 650.506 414.65 655.804 414.65 668.022V683.283C414.65 693.253 406.568 701.336 396.597 701.336H310.993C302.919 701.336 298.938 691.519 304.731 685.895C305.084 685.552 305.464 685.239 305.868 684.959Z" stroke="white" stroke-width="4" style="mix-blend-mode:lighten"/>
<path d="M560.111 645.083L561.251 646.726L560.111 645.083L559.11 645.777C555.667 648.166 551.653 649.604 547.475 649.945L535.122 650.952H513.498C504.647 650.952 495.967 653.389 488.41 657.997C485.973 659.482 483.673 661.181 481.538 663.073L476.421 667.606L477.747 669.103L476.421 667.606C475.64 668.298 474.926 669.06 474.287 669.884C466.795 679.536 451.329 674.238 451.329 662.02V646.759C451.329 636.789 459.411 628.706 469.382 628.706H554.985C563.059 628.706 567.041 638.523 561.248 644.147C560.895 644.49 560.515 644.803 560.111 645.083Z" stroke="white" stroke-width="4" style="mix-blend-mode:lighten"/>
<path d="M454.964 684.959L453.824 683.316L454.964 684.959L455.964 684.265C459.408 681.876 463.421 680.438 467.599 680.097L479.952 679.09H501.577C510.428 679.09 519.108 676.653 526.665 672.045C529.101 670.56 531.401 668.861 533.537 666.969L538.654 662.436L537.327 660.939L538.654 662.436C539.434 661.744 540.148 660.982 540.788 660.158C548.28 650.506 563.746 655.804 563.746 668.022V683.283C563.746 693.253 555.663 701.336 545.692 701.336H460.089C452.015 701.336 448.033 691.519 453.826 685.895C454.179 685.552 454.56 685.239 454.964 684.959Z" stroke="white" stroke-width="4" style="mix-blend-mode:lighten"/>
<path d="M112.824 735.467L113.964 737.11L112.824 735.467L111.824 736.161C108.38 738.551 104.367 739.988 100.189 740.329L87.8358 741.336H66.2113C57.3604 741.336 48.6804 743.773 41.1232 748.381C38.6869 749.866 36.3872 751.565 34.2514 753.457L29.1345 757.991L30.4607 759.488L29.1344 757.991C28.3541 758.682 27.6396 759.444 27.0004 760.268C19.5084 769.92 4.04236 764.622 4.04236 752.404V737.143C4.04236 727.173 12.1251 719.09 22.0957 719.09H107.699C115.773 719.09 119.755 728.907 113.962 734.531C113.609 734.874 113.228 735.187 112.824 735.467Z" stroke="white" stroke-width="4" style="mix-blend-mode:lighten"/>
<path d="M261.92 735.467L263.06 737.11L261.92 735.467L260.919 736.161C257.476 738.551 253.462 739.988 249.284 740.329L236.931 741.336H215.307C206.456 741.336 197.776 743.773 190.219 748.381C187.782 749.866 185.483 751.565 183.347 753.457L178.23 757.991L179.556 759.488L178.23 757.991C177.45 758.682 176.735 759.444 176.096 760.268C168.604 769.92 153.138 764.622 153.138 752.404V737.143C153.138 727.173 161.221 719.09 171.191 719.09H256.795C264.869 719.09 268.85 728.907 263.057 734.531C262.704 734.874 262.324 735.187 261.92 735.467Z" stroke="white" stroke-width="4" style="mix-blend-mode:lighten"/>
<path d="M411.015 735.467L412.155 737.11L411.015 735.467L410.015 736.161C406.571 738.551 402.558 739.988 398.38 740.329L386.027 741.336H364.402C355.551 741.336 346.871 743.773 339.314 748.381C336.878 749.866 334.578 751.565 332.442 753.457L327.325 757.991L328.652 759.488L327.325 757.991C326.545 758.682 325.831 759.444 325.191 760.268C317.699 769.92 302.233 764.622 302.233 752.404V737.143C302.233 727.173 310.316 719.09 320.287 719.09H405.89C413.964 719.09 417.946 728.907 412.153 734.531C411.8 734.874 411.419 735.187 411.015 735.467Z" stroke="white" stroke-width="4" style="mix-blend-mode:lighten"/>
<path d="M560.111 735.467L561.251 737.11L560.111 735.467L559.11 736.161C555.667 738.551 551.653 739.988 547.475 740.329L535.122 741.336H513.498C504.647 741.336 495.967 743.773 488.41 748.381C485.973 749.866 483.673 751.565 481.538 753.457L476.421 757.991L477.747 759.488L476.421 757.991C475.64 758.682 474.926 759.444 474.287 760.268C466.795 769.92 451.329 764.622 451.329 752.404V737.143C451.329 727.173 459.411 719.09 469.382 719.09H554.985C563.059 719.09 567.041 728.907 561.248 734.531C560.895 734.874 560.515 735.187 560.111 735.467Z" stroke="white" stroke-width="4" style="mix-blend-mode:lighten"/>
</g>
</g>
</svg>
